<?xml version="1.0" encoding="UTF-8"?>
<svg id="Calque_1" xmlns="http://www.w3.org/2000/svg" xmlns:xlink="http://www.w3.org/1999/xlink" version="1.1" viewBox="0 0 64 64">
  <!-- Generator: Adobe Illustrator 30.0.0, SVG Export Plug-In . SVG Version: 2.1.1 Build 123)  -->
  <defs>
    <style>
      .st0 {
        fill: #283649;
      }

      .st1 {
        fill: url(#Dégradé_sans_nom_42);
      }

      .st2 {
        fill: #0e1623;
      }

      .st3 {
        fill: none;
        stroke: #0e1623;
        stroke-miterlimit: 10;
        stroke-width: .52px;
      }
    </style>
    <linearGradient id="Dégradé_sans_nom_42" data-name="Dégradé sans nom 42" x1="15.65" y1="13.05" x2="44.79" y2="48.42" gradientUnits="userSpaceOnUse">
      <stop offset="0" stop-color="#dbcdfa"/>
      <stop offset="1" stop-color="#9ecaf8"/>
    </linearGradient>
  </defs>
  <rect class="st3" x=".21" y=".2" width="63.57" height="63.57" rx="3.99" ry="3.99"/>
  <rect class="st2" x=".21" y=".23" width="63.57" height="63.57" rx="3.99" ry="3.99"/>
  <path class="st1" d="M16.84,46.08h17.59v3.99h-17.59c-4.27,0-7.75-3.48-7.75-7.75v-25.15c0-4.27,3.48-7.75,7.75-7.75h25.15c4.27,0,7.75,3.48,7.75,7.75v14h-3.99v-14c0-2.07-1.69-3.76-3.76-3.76h-25.15c-2.07,0-3.76,1.69-3.76,3.76v25.15c0,2.07,1.69,3.76,3.76,3.76ZM28.36,19.65l7.1,20.21h-4.3l-1.3-3.78h-7.85l-1.3,3.78h-4.3l7.13-20.21h4.82ZM28.82,32.96l-2.89-8.4-2.86,8.4h5.75ZM41.28,39.86v-20.16h-4.07v20.16h4.07ZM54.76,45.43l-2.29-.82c-2.54-.92-4.55-2.92-5.46-5.46l-.82-2.29c-.07-.21-.37-.21-.44,0l-.82,2.29c-.92,2.54-2.92,4.55-5.46,5.46l-2.29.82c-.21.07-.21.37,0,.44l2.29.82c2.54.92,4.55,2.92,5.46,5.46l.82,2.29c.07.21.37.21.44,0l.82-2.29c.92-2.54,2.92-4.55,5.46-5.46l2.29-.82c.21-.07.21-.37,0-.44Z"/>
  <path class="st0" d="M63.75,3.52s-1.32-2.58-3.47-2.57c-1.36.01-56.16-.04-56.16-.04,0,0-3.05.32-3.87,2.67C.82,1.24,2.74.22,4.23.2s55.85.03,55.85.03c0,0,3.18.17,3.67,3.29Z"/>
</svg>