<?xml version="1.0" encoding="UTF-8"?>
<svg id="Calque_1" xmlns="http://www.w3.org/2000/svg" xmlns:xlink="http://www.w3.org/1999/xlink" version="1.1" viewBox="0 0 64 64">
  <!-- Generator: Adobe Illustrator 30.0.0, SVG Export Plug-In . SVG Version: 2.1.1 Build 123)  -->
  <defs>
    <style>
      .st0 {
        fill: url(#Dégradé_sans_nom_4);
      }

      .st1 {
        fill: #ebebeb;
      }

      .st2 {
        fill: #283649;
      }

      .st3 {
        fill: url(#Dégradé_sans_nom);
      }

      .st4 {
        fill: #0e1623;
      }

      .st5 {
        fill: none;
        stroke: #0e1623;
        stroke-miterlimit: 10;
        stroke-width: .52px;
      }

      .st6 {
        fill: #134489;
        fill-rule: evenodd;
      }
    </style>
    <linearGradient id="Dégradé_sans_nom" data-name="Dégradé sans nom" x1="15.66" y1="50.96" x2="44.8" y2="15.59" gradientTransform="translate(0 64) scale(1 -1)" gradientUnits="userSpaceOnUse">
      <stop offset="0" stop-color="#dbcdfa"/>
      <stop offset="1" stop-color="#9ecaf8"/>
    </linearGradient>
    <linearGradient id="Dégradé_sans_nom_4" data-name="Dégradé sans nom 4" x1="46.68" y1="30.05" x2="46.68" y2="63.74" gradientUnits="userSpaceOnUse">
      <stop offset="0" stop-color="#f2f4f4"/>
      <stop offset="1" stop-color="#e8e8e8"/>
    </linearGradient>
  </defs>
  <rect class="st5" x=".3" y=".29" width="63.39" height="63.39" rx="3.98" ry="3.98"/>
  <rect class="st4" x=".3" y=".32" width="63.39" height="63.39" rx="3.98" ry="3.98"/>
  <path class="st3" d="M16.84,46.08h17.59v3.99h-17.59c-4.27,0-7.75-3.48-7.75-7.75v-25.15c0-4.27,3.48-7.75,7.75-7.75h25.15c4.27,0,7.75,3.48,7.75,7.75v14h-3.99v-14c0-2.07-1.69-3.76-3.76-3.76h-25.15c-2.07,0-3.76,1.69-3.76,3.76v25.15c0,2.07,1.69,3.76,3.76,3.76ZM28.36,19.65l7.1,20.21h-4.3l-1.3-3.78h-7.85l-1.3,3.78h-4.3l7.13-20.21s4.82,0,4.82,0ZM28.82,32.96l-2.89-8.4-2.86,8.4h5.75ZM41.28,39.86v-20.16h-4.07v20.16h4.07ZM54.76,45.43l-2.29-.82c-2.54-.92-4.55-2.92-5.46-5.46l-.82-2.29c-.07-.21-.37-.21-.44,0l-.82,2.29c-.92,2.54-2.92,4.55-5.46,5.46l-2.29.82c-.21.07-.21.37,0,.44l2.29.82c2.54.92,4.55,2.92,5.46,5.46l.82,2.29c.07.21.37.21.44,0l.82-2.29c.92-2.54,2.92-4.55,5.46-5.46l2.29-.82c.21-.07.21-.37,0-.44Z"/>
  <g>
    <path class="st1" d="M59.82,63.97h-30.13v-.52h30.09s1.78.05,2.91-1.42c.81-1.01.76-2.2.76-2.21v-29.74h.52v29.74s.06,1.37-.87,2.53c-1.19,1.55-2.94,1.62-3.28,1.62Z"/>
    <path class="st0" d="M59.73,63.73h-30.05s-.69-12.53,10.36-24.09c10.68-10.76,21.84-9.55,23.65-9.55-.04,18.79-.07,29.69-.07,29.69,0,0,0,1.27-.83,2.39-1.13,1.51-3.05,1.57-3.05,1.57h-.01Z"/>
    <path id="path-8" class="st6" d="M46.93,53.18h1.56c.69,0,1.02-.25,1.17-.25.13,0,.23.1.23.31,0,.23-.25,1.27-.43,1.6-.13.23-.25.33-.69.33h-1.83c0,.52.02.88.03,1.06.02.64.14,1.65.34,1.93.33.48,1.34,1.02,3.35,1.02,2.59,0,4.32-.51,5.85-1.83,1.63-1.4,2.14-3.71,2.14-6.33,0-3.23-1.35-5.32-2.44-6.36-2.34-2.24-5.24-2.54-7.22-2.54-.51,0-1.53.08-1.73.18-.23.1-.32.23-.32.51v10.39h0v-.02h0ZM43.84,45.32c-.58.74-5.78,6.71-6.64,7.86h5.83v1.98h-7.9c-.31,0-.64-.1-.64-.38,0-.31.23-.53.33-.66.18-.2,10.51-12.6,10.73-12.85.41-.47.58-.58.86-.57.43.02.37.34,1.05.26.06,0,.92-.06,1.92-.06,3.18,0,7.43,0,10.2,2.9,1.27,1.32,2.47,3.43,2.47,6.46,0,3.2-1.35,5.65-2.77,7.1-1.17,1.2-3.82,2.87-8.53,2.87h-9.24c-.28,0-.36-.11-.36-.29s.08-.33.2-.33c.23,0,.79-.02,1.2-.08.97-.1,1.15-.5,1.2-1.29.08-1.38.08-3.07.08-3.07v-9.85h0Z"/>
  </g>
  <path class="st2" d="M63.66,3.6s-1.32-2.57-3.46-2.56c-1.36,0-56-.04-56-.04,0,0-3.04.32-3.86,2.66C.91,1.33,2.82.31,4.31.29c1.49-.02,55.69.03,55.69.03,0,0,3.17.17,3.66,3.28Z"/>
</svg>